Coordinates
version=1
nRows=32
nColumns=22
inDegrees=yes

Units are S.I. units (second, meters, Newtons, ...)
If the header above contains a line with 'inDegrees', this indicates whether rotational values are in degrees (yes) or radians (no).

endheader
time	pelvis_tilt	pelvis_list	pelvis_rotation	pelvis_tx	pelvis_ty	pelvis_tz	hip_flexion_r	hip_adduction_r	hip_rotation_r	knee_angle_r	ankle_angle_r	subtalar_angle_r	hip_flexion_l	hip_adduction_l	hip_rotation_l	knee_angle_l	ankle_angle_l	subtalar_angle_l	lumbar_extension	lumbar_bending	lumbar_rotation
      0.01000000	     -0.31797971	     -2.36983820	     -0.73384653	     -0.99741539	      0.93992955	     -0.74607176	      5.01873338	      0.22000421	     -8.63501150	    -17.63457776	     12.24436951	      0.29028998	      6.74362810	     -3.06606732	    -11.98617651	    -23.08281612	     14.60505965	     -2.61698525	     -6.89452469	     -0.43843923	     -4.14279428
      0.02000000	     -0.32906301	     -2.38274547	     -0.72767381	     -0.99702590	      0.93990292	     -0.74605129	      4.97284052	      0.23967742	     -8.63995671	    -17.57790724	     12.25946535	      0.29236043	      6.73858583	     -3.07983394	    -11.98118185	    -23.09465723	     14.61043486	     -2.61877953	     -6.85918605	     -0.43340024	     -4.12477038
      0.03000000	     -0.32098236	     -2.41936977	     -0.71280916	     -0.99658196	      0.93990051	     -0.74603278	      4.89463421	      0.28954123	     -8.62916588	    -17.50926759	     12.26671245	      0.29285694	      6.70758828	     -3.11787051	    -11.95527011	    -23.10508413	     14.66517005	     -2.59981184	     -6.85000402	     -0.39909209	     -4.12296646
      0.04000000	     -0.33447102	     -2.42346213	     -0.70781396	     -0.99612113	      0.93986874	     -0.74600376	      4.85223897	      0.29812135	     -8.64505459	    -17.46274420	     12.27288072	      0.29390959	      6.69542762	     -3.12243953	    -11.95105356	    -23.10993549	     14.68088284	     -2.59143280	     -6.81951885	     -0.41170552	     -4.08987992
      0.05000000	     -0.32324004	     -2.45387390	     -0.70027703	     -0.99562867	      0.93987562	     -0.74598007	      4.76749547	      0.34147927	     -8.62448318	    -17.39222311	     12.28448288	      0.29628488	      6.64709987	     -3.15313616	    -11.93091959	    -23.10443264	     14.73660292	     -2.55360067	     -6.82140797	     -0.38949404	     -4.07136608
      0.06000000	     -0.33839586	     -2.45750392	     -0.69428611	     -0.99516030	      0.93984245	     -0.74597190	      4.73024659	      0.34803841	     -8.63631049	    -17.35354887	     12.28987849	      0.29782552	      6.63448274	     -3.15650164	    -11.92847433	    -23.10760247	     14.74657733	     -2.54549918	     -6.79911240	     -0.40154736	     -4.03810994
      0.07000000	     -0.35312072	     -2.46892367	     -0.68746732	     -0.99468096	      0.93981296	     -0.74597519	      4.68708244	      0.36432544	     -8.63748737	    -17.30604976	     12.30249247	      0.30117890	      6.61411433	     -3.16571513	    -11.91801326	    -23.09893850	     14.76731659	     -2.53391844	     -6.77869408	     -0.40213544	     -4.00982007
      0.08000000	     -0.34185780	     -2.49740974	     -0.67213477	     -0.99419415	      0.93982283	     -0.74600160	      4.60829309	      0.40013495	     -8.62719947	    -17.24732177	     12.30623507	      0.30887949	      6.56414289	     -3.19117004	    -11.89154668	    -23.08936437	     14.80977152	     -2.50344759	     -6.79248576	     -0.37837186	     -4.00631248
      0.09000000	     -0.36347119	     -2.50281218	     -0.65748195	     -0.99370698	      0.93978588	     -0.74602540	      4.57677489	      0.40616564	     -8.65239504	    -17.20980080	     12.31030265	      0.31162624	      6.55038484	     -3.19544439	    -11.89142357	    -23.07735040	     14.81424812	     -2.49945661	     -6.76719373	     -0.38796111	     -3.98794191
      0.10000000	     -0.38606555	     -2.51367252	     -0.63607920	     -0.99318268	      0.93974995	     -0.74607067	      4.53816348	      0.41761988	     -8.68202049	    -17.16252061	     12.31894339	      0.31638889	      6.53014674	     -3.20232735	    -11.88013810	    -23.05430789	     14.82424109	     -2.49562986	     -6.73503910	     -0.38850072	     -3.98724430
      0.11000000	     -0.40731404	     -2.52663405	     -0.60528923	     -0.99262433	      0.93971776	     -0.74614345	      4.48901903	      0.42953137	     -8.72541155	    -17.10453390	     12.32732559	      0.32344917	      6.50548522	     -3.20900026	    -11.85805113	    -23.02643343	     14.83791875	     -2.49217983	     -6.69993825	     -0.38341644	     -4.00472543
      0.12000000	     -0.40054422	     -2.54838541	     -0.53456140	     -0.99206117	      0.93972728	     -0.74627648	      4.39936510	      0.44806483	     -8.81301402	    -17.03551101	     12.32315628	      0.34331624	      6.45971302	     -3.21638016	    -11.76920383	    -23.00578277	     14.85943992	     -2.48707988	     -6.70269211	     -0.36730729	     -4.07719282
      0.13000000	     -0.42953368	     -2.55418342	     -0.51393337	     -0.99148937	      0.93968584	     -0.74633164	      4.36701392	      0.45268753	     -8.84880088	    -16.99261752	     12.32968211	      0.34864981	      6.43751887	     -3.21921515	    -11.77900854	    -22.97045518	     14.86444758	     -2.48716124	     -6.65843623	     -0.37714034	     -4.08376352
      0.14000000	     -0.43637968	     -2.55900622	     -0.45717200	     -0.99092362	      0.93967944	     -0.74645995	      4.29687673	      0.45269439	     -8.91954479	    -16.92981743	     12.33660039	      0.36914207	      6.39842002	     -3.20792567	    -11.71026958	    -22.93588659	     14.87200655	     -2.48853676	     -6.64389531	     -0.38415858	     -4.14292307
      0.15000000	     -0.46416305	     -2.56189954	     -0.43790286	     -0.99039848	      0.93963957	     -0.74651778	      4.27142708	      0.45443193	     -8.94693217	    -16.89482809	     12.34258253	      0.37372961	      6.38211657	     -3.20760879	    -11.71914373	    -22.90772620	     14.87508199	     -2.48968628	     -6.61029524	     -0.40114633	     -4.14420527
      0.16000000	     -0.48948931	     -2.55952059	     -0.41520012	     -0.98989491	      0.93960514	     -0.74659289	      4.24263361	      0.45000752	     -8.97051161	    -16.85598501	     12.35019060	      0.37948350	      6.36780366	     -3.19801722	    -11.71133830	    -22.88318297	     14.87671407	     -2.49169380	     -6.58187263	     -0.42309725	     -4.15121192
      0.17000000	     -0.49977189	     -2.54411838	     -0.37828621	     -0.98940919	      0.93959962	     -0.74671265	      4.20183888	      0.42738087	     -9.00747196	    -16.82629483	     12.36388513	      0.39677968	      6.33361858	     -3.16247173	    -11.65316955	    -22.84402372	     14.86020916	     -2.50379636	     -6.57602215	     -0.45644965	     -4.18308087
      0.18000000	     -0.52486809	     -2.54070978	     -0.36071361	     -0.98893951	      0.93957073	     -0.74678182	      4.18038802	      0.42237052	     -9.02221048	    -16.79475643	     12.36897419	      0.40065555	      6.32448051	     -3.15430331	    -11.65867968	    -22.82805711	     14.85840393	     -2.50687345	     -6.55639372	     -0.48194155	     -4.17221132
      0.19000000	     -0.55083334	     -2.53182578	     -0.33959249	     -0.98846235	      0.93955074	     -0.74685887	      4.15651168	      0.41238983	     -9.03032960	    -16.75783719	     12.37518786	      0.40530637	      6.31106208	     -3.13747982	    -11.65529439	    -22.80149048	     14.84974857	     -2.51116471	     -6.53567711	     -0.51367208	     -4.16962868
      0.20000000	     -0.55813399	     -2.50416841	     -0.30942980	     -0.98796584	      0.93957600	     -0.74697458	      4.11207656	      0.37904232	     -9.03950047	    -16.72637801	     12.38602172	      0.41904025	      6.26291836	     -3.08831397	    -11.61203719	    -22.74526644	     14.80306425	     -2.52669147	     -6.53546545	     -0.56218735	     -4.18968448
      0.21000000	     -0.58378162	     -2.49900904	     -0.28413411	     -0.98747443	      0.93956779	     -0.74705579	      4.08378775	      0.37349839	     -9.05569522	    -16.68403209	     12.39032036	      0.42289230	      6.25013887	     -3.07844601	    -11.61953456	    -22.72290292	     14.79725485	     -2.52926269	     -6.51695898	     -0.58946239	     -4.18707019
      0.22000000	     -0.58063575	     -2.47784001	     -0.23834522	     -0.98696634	      0.93962275	     -0.74719196	      4.01717354	      0.34828582	     -9.07805586	    -16.63657900	     12.38961251	      0.43698297	      6.19279636	     -3.03611147	    -11.56431814	    -22.66855557	     14.74427356	     -2.53939405	     -6.53207494	     -0.62926921	     -4.22863603
      0.23000000	     -0.60535244	     -2.47404921	     -0.21006778	     -0.98648632	      0.93962427	     -0.74728101	      3.98798449	      0.34406597	     -9.09433341	    -16.59450071	     12.39146022	      0.44112089	      6.18061548	     -3.02809231	    -11.56984173	    -22.64710910	     14.73865059	     -2.54048719	     -6.52049456	     -0.65428057	     -4.23449784
      0.24000000	     -0.59694793	     -2.46264735	     -0.15530193	     -0.98601564	      0.93969162	     -0.74743619	      3.91824593	      0.32810785	     -9.12682292	    -16.54954278	     12.38154084	      0.45725415	      6.12771612	     -2.99680299	    -11.50205194	    -22.60551551	     14.68725258	     -2.54572813	     -6.55239252	     -0.68150205	     -4.28786510
      0.25000000	     -0.61772678	     -2.45911009	     -0.12739113	     -0.98557937	      0.93970044	     -0.74753690	      3.88941105	      0.32326656	     -9.13909158	    -16.51223827	     12.38072481	      0.46258522	      6.12064802	     -2.98880199	    -11.50105075	    -22.59710862	     14.68126597	     -2.54636752	     -6.55469889	     -0.70422936	     -4.29371786
      0.26000000	     -0.62835315	     -2.45533248	     -0.08805947	     -0.98518834	      0.93972732	     -0.74766181	      3.84947631	      0.31767246	     -9.14875563	    -16.47157885	     12.37299605	      0.47234811	      6.10990898	     -2.97584901	    -11.46548826	    -22.59220705	     14.65213767	     -2.54943064	     -6.57776194	     -0.72628256	     -4.32102914
      0.27000000	     -0.64922371	     -2.46070077	     -0.07404229	     -0.98484582	      0.93972663	     -0.74775687	      3.84625053	      0.31930013	     -9.14878012	    -16.47026163	     12.37241751	      0.47323383	      6.11000143	     -2.97746936	    -11.46562821	    -22.58821641	     14.65060238	     -2.54971499	     -6.59557107	     -0.73554767	     -4.31963671
      0.28000000	     -0.64712084	     -2.46324278	     -0.02335027	     -0.98450701	      0.93976844	     -0.74791172	      3.78757246	      0.31934975	     -9.17715859	    -16.41625459	     12.35555407	      0.49618198	      6.09780557	     -2.96779920	    -11.40319488	    -22.59575130	     14.60296229	     -2.55782501	     -6.63917993	     -0.74678773	     -4.36073596
      0.29000000	     -0.66139701	     -2.46263649	     -0.00643663	     -0.98421928	      0.93976387	     -0.74802102	      3.77220503	      0.31479508	     -9.17496113	    -16.39940699	     12.35371375	      0.50138113	      6.10912981	     -2.96307120	    -11.39291081	    -22.61925710	     14.60177562	     -2.55886770	     -6.66733751	     -0.76449245	     -4.34715037
      0.30000000	     -0.67393410	     -2.46298945	      0.01298219	     -0.98395628	      0.93975509	     -0.74814160	      3.75213554	      0.31217041	     -9.16295226	    -16.37483467	     12.35413468	      0.50854217	      6.12581030	     -2.95887071	    -11.37617780	    -22.65162526	     14.59391235	     -2.56169076	     -6.69774454	     -0.77860740	     -4.34203578
      0.31000000	     -0.68398882	     -2.46519278	      0.03518328	     -0.98370664	      0.93974337	     -0.74827182	      3.72733833	      0.31230673	     -9.14347423	    -16.34573057	     12.35681098	      0.51725597	      6.14516934	     -2.95608206	    -11.35286365	    -22.69116581	     14.58486260	     -2.56584376	     -6.72898713	     -0.78904143	     -4.34024527
      0.32000000	     -0.69084203	     -2.46997850	      0.06212521	     -0.98347005	      0.93972867	     -0.74841485	      3.69673463	      0.31611887	     -9.11788475	    -16.31150336	     12.36177445	      0.52737081	      6.16661972	     -2.95478354	    -11.32145707	    -22.73749466	     14.57779566	     -2.57116308	     -6.76234818	     -0.79620084	     -4.34092888
